<mxfile host="app.diagrams.net" agent="Mozilla/5.0 (Windows NT 10.0; Win64; x64) AppleWebKit/537.36 (KHTML, like Gecko) Chrome/141.0.0.0 Safari/537.36 Edg/141.0.0.0" version="28.2.5">
  <diagram name="Страница — 1" id="za6x-6OvTxKvHDRIV6Jv">
    <mxGraphModel dx="2488" dy="2583" grid="1" gridSize="1.9685" guides="1" tooltips="1" connect="1" arrows="1" fold="1" page="1" pageScale="1" pageWidth="827" pageHeight="1169" math="0" shadow="0">
      <root>
        <mxCell id="0" />
        <mxCell id="1" parent="0" />
        <mxCell id="SDc0jncAeepdPX8xP0Z4-1" value="" style="endArrow=none;html=1;rounded=0;strokeWidth=3;" parent="1" edge="1">
          <mxGeometry width="50" height="50" relative="1" as="geometry">
            <mxPoint x="210" y="800" as="sourcePoint" />
            <mxPoint x="210" y="800" as="targetPoint" />
            <Array as="points">
              <mxPoint x="210" y="-20" />
              <mxPoint x="1040" y="-20" />
              <mxPoint x="1040" y="800" />
            </Array>
          </mxGeometry>
        </mxCell>
        <mxCell id="SDc0jncAeepdPX8xP0Z4-2" value="&lt;font style=&quot;font-size: 25px;&quot;&gt;TIM_CHANNEL&lt;/font&gt;" style="rounded=0;whiteSpace=wrap;html=1;strokeWidth=2;" parent="1" vertex="1">
          <mxGeometry x="380" y="430" width="480" height="60" as="geometry" />
        </mxCell>
        <mxCell id="SDc0jncAeepdPX8xP0Z4-3" value="&lt;font style=&quot;font-size: 25px;&quot;&gt;TIM_CHANNEL&lt;/font&gt;" style="rounded=0;whiteSpace=wrap;html=1;strokeWidth=2;" parent="1" vertex="1">
          <mxGeometry x="380" y="560" width="480" height="60" as="geometry" />
        </mxCell>
        <mxCell id="SDc0jncAeepdPX8xP0Z4-4" value="&lt;font style=&quot;font-size: 25px;&quot;&gt;Time Base Unit&lt;/font&gt;" style="whiteSpace=wrap;html=1;aspect=fixed;strokeWidth=2;" parent="1" vertex="1">
          <mxGeometry x="660" y="180" width="160" height="160" as="geometry" />
        </mxCell>
        <mxCell id="SDc0jncAeepdPX8xP0Z4-5" value="" style="endArrow=classic;html=1;rounded=0;entryX=0;entryY=0.5;entryDx=0;entryDy=0;strokeWidth=2;" parent="1" target="SDc0jncAeepdPX8xP0Z4-2" edge="1">
          <mxGeometry width="50" height="50" relative="1" as="geometry">
            <mxPoint x="190" y="460" as="sourcePoint" />
            <mxPoint x="340" y="459.66" as="targetPoint" />
          </mxGeometry>
        </mxCell>
        <mxCell id="SDc0jncAeepdPX8xP0Z4-6" value="" style="endArrow=classic;html=1;rounded=0;entryX=0;entryY=0.5;entryDx=0;entryDy=0;strokeWidth=2;" parent="1" edge="1">
          <mxGeometry width="50" height="50" relative="1" as="geometry">
            <mxPoint x="190" y="590" as="sourcePoint" />
            <mxPoint x="380" y="590" as="targetPoint" />
          </mxGeometry>
        </mxCell>
        <mxCell id="SDc0jncAeepdPX8xP0Z4-7" value="" style="endArrow=classic;html=1;rounded=0;strokeWidth=2;" parent="1" edge="1">
          <mxGeometry width="50" height="50" relative="1" as="geometry">
            <mxPoint x="860" y="460" as="sourcePoint" />
            <mxPoint x="1070" y="460" as="targetPoint" />
          </mxGeometry>
        </mxCell>
        <mxCell id="SDc0jncAeepdPX8xP0Z4-8" value="" style="endArrow=classic;html=1;rounded=0;strokeWidth=2;" parent="1" edge="1">
          <mxGeometry width="50" height="50" relative="1" as="geometry">
            <mxPoint x="860" y="589.58" as="sourcePoint" />
            <mxPoint x="1070" y="590" as="targetPoint" />
          </mxGeometry>
        </mxCell>
        <mxCell id="SDc0jncAeepdPX8xP0Z4-9" value="&lt;font style=&quot;font-size: 30px;&quot;&gt;ch_i[0]&lt;/font&gt;" style="text;html=1;align=center;verticalAlign=middle;whiteSpace=wrap;rounded=0;" parent="1" vertex="1">
          <mxGeometry x="110" y="440" width="60" height="30" as="geometry" />
        </mxCell>
        <mxCell id="SDc0jncAeepdPX8xP0Z4-10" value="&lt;font style=&quot;font-size: 30px;&quot;&gt;ch_i[N]&lt;/font&gt;" style="text;html=1;align=center;verticalAlign=middle;whiteSpace=wrap;rounded=0;" parent="1" vertex="1">
          <mxGeometry x="110" y="570" width="60" height="30" as="geometry" />
        </mxCell>
        <mxCell id="SDc0jncAeepdPX8xP0Z4-11" value="&lt;font style=&quot;font-size: 30px;&quot;&gt;.&lt;/font&gt;&lt;div&gt;&lt;font style=&quot;font-size: 30px;&quot;&gt;.&lt;/font&gt;&lt;/div&gt;&lt;div&gt;&lt;font style=&quot;font-size: 30px;&quot;&gt;.&lt;/font&gt;&lt;/div&gt;" style="text;html=1;align=center;verticalAlign=middle;whiteSpace=wrap;rounded=0;" parent="1" vertex="1">
          <mxGeometry x="120" y="500" width="60" height="30" as="geometry" />
        </mxCell>
        <mxCell id="SDc0jncAeepdPX8xP0Z4-12" value="&lt;font style=&quot;font-size: 30px;&quot;&gt;ch_o[0]&lt;/font&gt;" style="text;html=1;align=center;verticalAlign=middle;whiteSpace=wrap;rounded=0;" parent="1" vertex="1">
          <mxGeometry x="1100" y="440" width="60" height="30" as="geometry" />
        </mxCell>
        <mxCell id="SDc0jncAeepdPX8xP0Z4-13" value="&lt;font style=&quot;font-size: 30px;&quot;&gt;ch_o[N]&lt;/font&gt;" style="text;html=1;align=center;verticalAlign=middle;whiteSpace=wrap;rounded=0;" parent="1" vertex="1">
          <mxGeometry x="1100" y="570" width="60" height="30" as="geometry" />
        </mxCell>
        <mxCell id="SDc0jncAeepdPX8xP0Z4-14" value="&lt;font style=&quot;font-size: 30px;&quot;&gt;.&lt;/font&gt;&lt;div&gt;&lt;font style=&quot;font-size: 30px;&quot;&gt;.&lt;/font&gt;&lt;/div&gt;&lt;div&gt;&lt;font style=&quot;font-size: 30px;&quot;&gt;.&lt;/font&gt;&lt;/div&gt;" style="text;html=1;align=center;verticalAlign=middle;whiteSpace=wrap;rounded=0;" parent="1" vertex="1">
          <mxGeometry x="1090" y="500" width="60" height="30" as="geometry" />
        </mxCell>
        <mxCell id="SDc0jncAeepdPX8xP0Z4-16" value="&lt;font style=&quot;font-size: 30px;&quot;&gt;Reg Block&lt;/font&gt;" style="rounded=0;whiteSpace=wrap;html=1;strokeWidth=2;" parent="1" vertex="1">
          <mxGeometry x="600" y="670" width="220" height="90" as="geometry" />
        </mxCell>
        <mxCell id="SDc0jncAeepdPX8xP0Z4-19" value="" style="endArrow=classic;html=1;rounded=0;strokeWidth=2;" parent="1" edge="1">
          <mxGeometry width="50" height="50" relative="1" as="geometry">
            <mxPoint x="161" y="339" as="sourcePoint" />
            <mxPoint x="399.18999999999994" y="338.57" as="targetPoint" />
          </mxGeometry>
        </mxCell>
        <mxCell id="SDc0jncAeepdPX8xP0Z4-20" value="&lt;font style=&quot;font-size: 25px;&quot;&gt;Trigger controller&lt;/font&gt;" style="rounded=0;whiteSpace=wrap;html=1;strokeWidth=2;" parent="1" vertex="1">
          <mxGeometry x="400" width="120" height="380" as="geometry" />
        </mxCell>
        <mxCell id="SDc0jncAeepdPX8xP0Z4-21" value="" style="endArrow=classic;html=1;rounded=0;entryX=0;entryY=0.5;entryDx=0;entryDy=0;exitX=1.01;exitY=0.684;exitDx=0;exitDy=0;exitPerimeter=0;strokeWidth=2;" parent="1" source="SDc0jncAeepdPX8xP0Z4-20" target="SDc0jncAeepdPX8xP0Z4-4" edge="1">
          <mxGeometry width="50" height="50" relative="1" as="geometry">
            <mxPoint x="520" y="300" as="sourcePoint" />
            <mxPoint x="570" y="250" as="targetPoint" />
          </mxGeometry>
        </mxCell>
        <mxCell id="SDc0jncAeepdPX8xP0Z4-22" value="" style="endArrow=classic;html=1;rounded=0;strokeWidth=2;" parent="1" edge="1">
          <mxGeometry width="50" height="50" relative="1" as="geometry">
            <mxPoint x="520" y="120" as="sourcePoint" />
            <mxPoint x="1130" y="120" as="targetPoint" />
          </mxGeometry>
        </mxCell>
        <mxCell id="SDc0jncAeepdPX8xP0Z4-23" value="" style="endArrow=classic;html=1;rounded=0;strokeWidth=2;" parent="1" edge="1">
          <mxGeometry width="50" height="50" relative="1" as="geometry">
            <mxPoint x="160" y="120" as="sourcePoint" />
            <mxPoint x="400" y="120" as="targetPoint" />
          </mxGeometry>
        </mxCell>
        <mxCell id="SDc0jncAeepdPX8xP0Z4-24" value="&lt;font style=&quot;font-size: 30px;&quot;&gt;trg_o&lt;/font&gt;" style="text;html=1;align=center;verticalAlign=middle;whiteSpace=wrap;rounded=0;" parent="1" vertex="1">
          <mxGeometry x="1150" y="100" width="60" height="30" as="geometry" />
        </mxCell>
        <mxCell id="tUvvbMQQ8levRH-z1jP8-1" value="&lt;font style=&quot;font-size: 30px;&quot;&gt;aresetn_i&lt;/font&gt;" style="text;html=1;whiteSpace=wrap;strokeColor=none;fillColor=none;align=center;verticalAlign=middle;rounded=0;" parent="1" vertex="1">
          <mxGeometry x="62.99000000000001" y="318.9" width="60" height="30" as="geometry" />
        </mxCell>
        <mxCell id="tUvvbMQQ8levRH-z1jP8-2" value="" style="shape=flexArrow;endArrow=classic;html=1;rounded=0;entryX=0.375;entryY=0;entryDx=0;entryDy=0;entryPerimeter=0;width=33.142857142857146;endSize=11.657142857142857;exitX=0.5;exitY=1;exitDx=0;exitDy=0;endWidth=30.20408163265306;strokeWidth=2;" parent="1" source="SDc0jncAeepdPX8xP0Z4-4" edge="1">
          <mxGeometry width="50" height="50" relative="1" as="geometry">
            <mxPoint x="739.17" y="380" as="sourcePoint" />
            <mxPoint x="739.17" y="430" as="targetPoint" />
          </mxGeometry>
        </mxCell>
        <mxCell id="tUvvbMQQ8levRH-z1jP8-3" value="&lt;span style=&quot;font-size: 30px;&quot;&gt;etr_i&lt;/span&gt;" style="text;html=1;whiteSpace=wrap;strokeColor=none;fillColor=none;align=center;verticalAlign=middle;rounded=0;" parent="1" vertex="1">
          <mxGeometry x="90" y="110" width="60" height="30" as="geometry" />
        </mxCell>
        <mxCell id="tUvvbMQQ8levRH-z1jP8-4" value="" style="endArrow=classic;html=1;rounded=0;strokeWidth=2;" parent="1" edge="1">
          <mxGeometry width="50" height="50" relative="1" as="geometry">
            <mxPoint x="160" y="40" as="sourcePoint" />
            <mxPoint x="400" y="40" as="targetPoint" />
          </mxGeometry>
        </mxCell>
        <mxCell id="tUvvbMQQ8levRH-z1jP8-5" value="&lt;font style=&quot;font-size: 30px;&quot;&gt;aclk_i&lt;/font&gt;" style="text;html=1;whiteSpace=wrap;strokeColor=none;fillColor=none;align=center;verticalAlign=middle;rounded=0;" parent="1" vertex="1">
          <mxGeometry x="90" y="20" width="60" height="30" as="geometry" />
        </mxCell>
        <mxCell id="tUvvbMQQ8levRH-z1jP8-6" value="" style="shape=flexArrow;endArrow=classic;html=1;rounded=0;width=33.142857142857146;endSize=11.657142857142857;exitX=0.5;exitY=1;exitDx=0;exitDy=0;endWidth=30.20408163265306;strokeWidth=2;" parent="1" edge="1">
          <mxGeometry width="50" height="50" relative="1" as="geometry">
            <mxPoint x="740.83" y="490" as="sourcePoint" />
            <mxPoint x="740" y="560" as="targetPoint" />
          </mxGeometry>
        </mxCell>
        <mxCell id="GDZ235BtUHFZMsyD-Jfj-1" value="" style="endArrow=classic;html=1;rounded=0;strokeWidth=1.9685;" edge="1" parent="1">
          <mxGeometry width="50" height="50" relative="1" as="geometry">
            <mxPoint x="160" y="240" as="sourcePoint" />
            <mxPoint x="400" y="240" as="targetPoint" />
          </mxGeometry>
        </mxCell>
        <mxCell id="GDZ235BtUHFZMsyD-Jfj-2" value="&lt;span style=&quot;font-size: 30px;&quot;&gt;itr_i&lt;/span&gt;" style="text;html=1;whiteSpace=wrap;strokeColor=none;fillColor=none;align=center;verticalAlign=middle;rounded=0;" vertex="1" parent="1">
          <mxGeometry x="90" y="220" width="60" height="30" as="geometry" />
        </mxCell>
        <mxCell id="GDZ235BtUHFZMsyD-Jfj-3" value="" style="endArrow=none;html=1;rounded=0;strokeWidth=1.9685;" edge="1" parent="1">
          <mxGeometry width="50" height="50" relative="1" as="geometry">
            <mxPoint x="267.72" y="254" as="sourcePoint" />
            <mxPoint x="296.72" y="226" as="targetPoint" />
          </mxGeometry>
        </mxCell>
        <mxCell id="GDZ235BtUHFZMsyD-Jfj-4" value="&lt;font style=&quot;font-size: 30px;&quot;&gt;N&lt;/font&gt;" style="text;html=1;align=center;verticalAlign=middle;whiteSpace=wrap;rounded=0;" vertex="1" parent="1">
          <mxGeometry x="250" y="220" width="40" height="10" as="geometry" />
        </mxCell>
        <mxCell id="GDZ235BtUHFZMsyD-Jfj-5" value="" style="shape=flexArrow;endArrow=classic;startArrow=classic;html=1;rounded=0;startWidth=58.36734693877551;startSize=17.094444444444445;width=60.55555555555556;endSize=18.32222222222222;endWidth=64.93813492063492;strokeWidth=1.9685;" edge="1" parent="1">
          <mxGeometry width="100" height="100" relative="1" as="geometry">
            <mxPoint x="710.63" y="923.4699999999999" as="sourcePoint" />
            <mxPoint x="710.9" y="760" as="targetPoint" />
          </mxGeometry>
        </mxCell>
        <mxCell id="GDZ235BtUHFZMsyD-Jfj-6" value="&lt;font style=&quot;font-size: 30px;&quot;&gt;AXI4-Lite&lt;/font&gt;" style="text;html=1;align=center;verticalAlign=middle;whiteSpace=wrap;rounded=0;" vertex="1" parent="1">
          <mxGeometry x="635.63" y="927.1600000000001" width="148.74" height="30" as="geometry" />
        </mxCell>
      </root>
    </mxGraphModel>
  </diagram>
</mxfile>
